<?xml version="1.0" encoding="UTF-8" standalone="no"?><!DOCTYPE svg PUBLIC "-//W3C//DTD SVG 1.1//EN" "http://www.w3.org/Graphics/SVG/1.1/DTD/svg11.dtd"><svg width="100%" height="100%" viewBox="0 0 4167 1661" version="1.1" xmlns="http://www.w3.org/2000/svg" xmlns:xlink="http://www.w3.org/1999/xlink" xml:space="preserve" xmlns:serif="http://www.serif.com/" style="fill-rule:evenodd;clip-rule:evenodd;stroke-linejoin:round;stroke-miterlimit:2;"><rect id="Artboard1" x="0" y="0" width="4166.67" height="1660.68" style="fill:none;"/><g><path d="M591.312,747.982l0,-374.898c-65.052,13.005 -118.213,59.317 -140.876,120.35l0,867.93c0.416,0.253 0.836,0.509 1.256,0.762c61.325,37.063 139.62,-7.818 139.62,-79.47l0,-534.674Z" style="fill:url(#_Linear1);"/><path d="M628.618,216.924c-189.14,0 -342.459,153.326 -342.459,342.459c0,111.645 53.429,210.799 136.103,273.316l0,-202.482c-7.629,-22.218 -11.823,-46.031 -11.823,-70.834c0,-120.492 97.679,-218.172 218.179,-218.172c120.488,0 218.175,97.68 218.175,218.172c0,120.503 -97.687,218.182 -218.175,218.182c-3.062,0 -6.099,-0.11 -9.121,-0.235l0,124.394c3.029,0.082 6.07,0.125 9.121,0.125c189.132,0 342.458,-153.326 342.458,-342.466c0,-189.133 -153.326,-342.459 -342.458,-342.459Z" style="fill:url(#_Radial2);"/><text x="1307.51px" y="967.253px" style="font-family:'AvenirNext-DemiBold', 'Avenir Next', sans-serif;font-weight:600;font-size:833.316px;">posted</text></g><defs><linearGradient id="_Linear1" x1="0" y1="0" x2="1" y2="0" gradientUnits="userSpaceOnUse" gradientTransform="matrix(-480.508,685.863,-4879.92,-3418.82,766.667,514.855)"><stop offset="0" style="stop-color:#e90000;stop-opacity:1"/><stop offset="0.48" style="stop-color:#cc0a2e;stop-opacity:1"/><stop offset="1" style="stop-color:#7f26ab;stop-opacity:1"/></linearGradient><radialGradient id="_Radial2" cx="0" cy="0" r="1" gradientUnits="userSpaceOnUse" gradientTransform="matrix(287.853,427.027,-423.923,285.761,450.436,502.685)"><stop offset="0" style="stop-color:#e90000;stop-opacity:1"/><stop offset="0.59" style="stop-color:#d6071f;stop-opacity:1"/><stop offset="0.81" style="stop-color:#ab1665;stop-opacity:1"/><stop offset="1" style="stop-color:#7f26ab;stop-opacity:1"/></radialGradient></defs></svg>